<svg height="512" viewBox="0 0 512 512" width="512" xmlns="http://www.w3.org/2000/svg"><g id="outline"><path d="m496 320.74a8 8 0 0 0 -6.511-7.86l-16.149-3.059-34.027-38.658a35.8 35.8 0 0 0 -36.21-11.019l-6.5 1.715a118.547 118.547 0 0 0 -24.991-45.954l-28.872-32.8-14.358-54.411a16 16 0 0 0 4.2-15.419l-4.082-15.47a16 16 0 0 0 -19.55-11.388l-46.41 12.251a15.923 15.923 0 0 0 -8.831 6.045l-100.129-24.484a8 8 0 0 0 -9.244 4.6l-10.412 24.1c-2.558 5.929-5.007 11.991-7.28 18.018-3.957 10.507-7.5 21.258-10.54 31.956-.018.063-.035.125-.051.188a408.187 408.187 0 0 0 -9.487 41.439 35.791 35.791 0 0 0 -35.256 11.845l-33.453 39.438-11.869 3.087a8 8 0 0 0 -5.988 7.74v88.26a8 8 0 0 0 10.671 7.541l54.18-19.189q-.716 1.685-1.456 3.358l-13.511 30.282a27 27 0 0 0 18.246 37.229l80.112 19.591a27 27 0 0 0 33.358-24.612l1.989-33.113c.014-.236.034-.463.049-.7a23.989 23.989 0 0 0 19.407-35.256 23.918 23.918 0 0 0 7.6-31.085 23.959 23.959 0 0 0 10.227-23.07 23.98 23.98 0 0 0 8.207-46.274 408.667 408.667 0 0 0 13.735-56.828l.021-.119c1.769-10.6 3.131-21.392 4.052-32.062 0-.028.006-.057.008-.086v-.007l13.971 52.941-8.914 42.779a118.551 118.551 0 0 0 .952 52.295l-7.766 2.051a24 24 0 0 0 5.927 47.2 23.966 23.966 0 0 0 10.635 22.873 23.942 23.942 0 0 0 8.18 30.942 24 24 0 0 0 19.4 34.846l7.746 29.361a35.035 35.035 0 0 0 33.78 26.083 35.244 35.244 0 0 0 9-1.176l56.072-14.8a35.044 35.044 0 0 0 24.911-42.776l-7.789-29.498 52.6 16.5a8 8 0 0 0 10.4-7.631zm-460 18.84v-70.753l8.332-2.164a8 8 0 0 0 4.089-2.568l35.091-41.371a19.891 19.891 0 0 1 20.009-6.493l51.732 12.241a9 9 0 1 1 -4.164 17.514c-.08-.019-.16-.037-.24-.053l-26.5-5.44a8 8 0 0 0 -9.5 9.137 13.113 13.113 0 0 1 .183 2.12 12.3 12.3 0 0 1 -8.623 11.771l-.222.068c-.045.012-.088.027-.132.04h-.006l-.016.006a7.7 7.7 0 0 0 -.733.265h-.008l-.021.009-30.919 12.649a8 8 0 1 0 6.056 14.808l19.556-8a210.33 210.33 0 0 1 -8.2 37.183 7.976 7.976 0 0 0 -3.242.427zm151.614 31.45-1.989 33.111a11 11 0 0 1 -13.585 10.028l-80.114-19.592a10.994 10.994 0 0 1 -7.426-15.167l13.512-30.284c2.417-5.425 4.631-10.98 6.576-16.487l.006-.016a226.029 226.029 0 0 0 11.562-49.723c.031-.261.048-.524.053-.787l.092-5.5a28.189 28.189 0 0 0 14.03-18.559l17.191 3.529a24.955 24.955 0 0 0 30.491-21.583h5.987v-16h-9.635a24.945 24.945 0 0 0 -15.4-11.093l-36.789-8.747c1.921-11.125 4.335-22.214 7.208-33.125l21.855 6.3a256.8 256.8 0 0 0 71.261 10.117q11.3 0 22.649-1.006a392.641 392.641 0 0 1 -11.583 45.107l-10.951-2.677a24.027 24.027 0 0 0 -29.589 25.709l-1.322-.323a23.984 23.984 0 0 0 -26.857 34.613 23.976 23.976 0 0 0 1.932 40.777 24 24 0 0 0 13.868 37.205l7.125 1.742q-.084 1.209-.158 2.431zm22.046-21.786a8 8 0 0 1 -9.671 5.87l-15.543-3.8a8 8 0 0 1 3.8-15.541l15.543 3.8a8.008 8.008 0 0 1 5.871 9.671zm7.6-31.086a8.009 8.009 0 0 1 -9.668 5.873l-15.543-3.8-15.542-3.8a8 8 0 1 1 3.8-15.542l31.084 7.6a8.008 8.008 0 0 1 5.869 9.669zm7.6-31.084a8 8 0 0 1 -9.67 5.871l-31.084-7.6a8 8 0 1 1 3.8-15.541l31.083 7.6a7.961 7.961 0 0 1 2.859 1.341c.023.018.045.037.068.054a8.008 8.008 0 0 1 2.943 8.275zm23.14-27.285a8 8 0 0 1 -9.67 5.871l-23.312-5.7a8 8 0 0 1 1.9-15.773c.627 0 25.212 5.931 25.212 5.931a8.008 8.008 0 0 1 5.87 9.671zm-.025-89.687a240.53 240.53 0 0 1 -92.309-8.138l-21.916-6.32c1.654-5.393 3.439-10.778 5.335-16.119l20.148 5.813a256.8 256.8 0 0 0 71.278 10.107c6.482 0 12.98-.268 19.483-.76q-.855 7.722-2.018 15.415zm4.277-47.659c-.152 5.376-.422 10.761-.792 16.087a240.725 240.725 0 0 1 -87.793-8.566l-18.9-5.452c1.246-3.1 2.529-6.189 3.845-9.24l7.731-17.9 95.469 23.346.441 1.67zm75.5 66.568a7.994 7.994 0 0 0 1.73 3.244l30.121 34.223a102.5 102.5 0 0 1 21.526 39.448l-28.962 7.648a25.012 25.012 0 0 0 -18.467 21.434l-19.413 5.127a23.94 23.94 0 0 0 -25.915-9.708 102.48 102.48 0 0 1 -.758-44.946l9.3-44.629a8 8 0 0 0 -.1-3.673l-14.288-54.142 30.94-8.167zm18.258 201.16a23.975 23.975 0 0 0 1.2-40.8 24 24 0 0 0 -27.41-34.143l17.35-4.582a24.871 24.871 0 0 0 25.8 11.7l17.89 67.783-30.933 8.171a23.958 23.958 0 0 0 -3.894-8.129zm-75.302-260.571-4.083-15.466 46.409-12.251 4.093 15.465h-.008zm2.592 197.9a8 8 0 1 1 -4.083-15.47s24.57-6.391 25.245-6.391a8.014 8.014 0 0 1 7.723 5.92c0 .014 0 .028.008.043s.011.025.014.039a7.994 7.994 0 0 1 -5.7 9.733zm13.861 21.164a8 8 0 0 1 5.693-9.777l30.939-8.168a8 8 0 1 1 4.085 15.469l-30.941 8.168a8.01 8.01 0 0 1 -9.775-5.691zm8.167 30.94a8 8 0 0 1 5.693-9.777l30.94-8.168a8 8 0 0 1 4.084 15.47l-30.94 8.167a8.006 8.006 0 0 1 -9.776-5.691zm17.976 36.624h-.026l-.016.006a8 8 0 0 1 -4.073-15.472l15.47-4.083a8.034 8.034 0 0 1 2.056-.269 8 8 0 0 1 2.027 15.737zm110.059 31.382a18.894 18.894 0 0 1 -11.576 8.814l-56.071 14.8a18.994 18.994 0 0 1 -23.216-13.515l-7.4-28.044 7.729-2.041a23.838 23.838 0 0 0 14.612-11.124c.225-.385.435-.776.636-1.169l44.585-11.771a8 8 0 0 0 5.88-6.606q.056-.386.073-.779a7.976 7.976 0 0 0 -.091-1.59 7.9 7.9 0 0 0 -.169-.8l-19.907-75.431 15.469-4.081 5.617 21.285c.035.132.073.261.114.39l14.176 53.748c.035.133.073.264.114.394l11.377 43.12a18.859 18.859 0 0 1 -1.951 14.401zm56.637-50.01-51.833-16.26-9.34-35.417 13.141 4.5a8 8 0 0 0 5.183-15.137l-23.239-7.957-6.566-24.877a8 8 0 0 0 -6.558-5.872c-.015 0-.029-.006-.044-.009a15.339 15.339 0 0 0 -3.185.191l-36.714 9.687a9.011 9.011 0 0 1 -10.991-6.362c-.037-.149-.076-.3-.1-.449-.007-.038-.015-.077-.022-.115a8.985 8.985 0 0 1 6.525-10.474l36.368-9.6c.122-.026.245-.045.367-.078l14.195-3.749a19.909 19.909 0 0 1 20.122 6.122l35.841 40.72a8 8 0 0 0 4.515 2.574l12.335 2.329z"/><path d="m367.851 434.927-15.47 4.083a8 8 0 1 0 4.084 15.47l15.47-4.083a8 8 0 0 0 -4.084-15.47z"/><path d="m398.791 426.759-7.734 2.042a8 8 0 1 0 4.084 15.47l7.734-2.042a8 8 0 0 0 -4.084-15.47z"/><path d="m434.641 135.862h16v24h-16z"/><path d="m410.392 149.862h15.999v24h-15.999z" transform="matrix(.5 -.866 .866 .5 69.011 443.259)"/><path d="m406.392 181.863h24v15.999h-24z" transform="matrix(.866 -.5 .5 .866 -38.876 234.646)"/><path d="m434.641 191.862h16v24h-16z"/><path d="m458.889 177.862h16.001v24h-16.001z" transform="matrix(.5 -.866 .866 .5 69.029 499.282)"/><path d="m454.889 153.862h24v16.001h-24z" transform="matrix(.866 -.5 .5 .866 -18.383 255.115)"/><path d="m234.641 416h16v24h-16z"/><path d="m210.392 430h15.999v24h-15.999z" transform="matrix(.5 -.866 .866 .5 -273.587 410.129)"/><path d="m206.392 462h24v15.999h-24z" transform="matrix(.866 -.5 .5 .866 -205.744 172.168)"/><path d="m234.641 472h16v24h-16z"/><path d="m258.889 458h16.001v24h-16.001z" transform="matrix(.5 -.866 .866 .5 -273.587 466.15)"/><path d="m254.889 434h24v16.001h-24z" transform="matrix(.866 -.5 .5 .866 -185.236 192.647)"/><path d="m247.426 16h16v24h-16z"/><path d="m218.392 30h15.999v24h-15.999z" transform="matrix(.5 -.866 .866 .5 76.821 217.06)"/><path d="m214.392 62h24v15.999h-24z" transform="matrix(.866 -.5 .5 .866 -4.669 122.576)"/><path d="m274.392 58h15.999v24h-15.999z" transform="matrix(.5 -.866 .866 .5 80.568 279.553)"/><path d="m270.392 34h24v15.999h-24z" transform="matrix(.866 -.5 .5 .866 16.836 146.831)"/><path d="m384 40h16v16h-16z"/><path d="m368 56h16v16h-16z"/><path d="m400 56h16v16h-16z"/><path d="m384 72h16v16h-16z"/><path d="m56 88h16v16h-16z"/><path d="m32 112h16v16h-16z"/><path d="m80 112h16v16h-16z"/><path d="m56 136h16v16h-16z"/><path d="m144 376h16v16h-16z"/><path d="m112 360h16v16h-16z"/><path d="m192 200h16v16h-16z"/></g></svg>