<?xml version="1.0" encoding="iso-8859-1"?>
<!-- Generator: Adobe Illustrator 19.0.0, SVG Export Plug-In . SVG Version: 6.00 Build 0)  -->
<svg version="1.1" id="Layer_1" xmlns="http://www.w3.org/2000/svg" xmlns:xlink="http://www.w3.org/1999/xlink" x="0px" y="0px"
	 viewBox="0 0 512 512" style="enable-background:new 0 0 512 512;" xml:space="preserve">
<g transform="translate(1 1)">
	<g>
		<g>
			<path d="M485.4,135.533H280.6V65.891c10.103-3.391,17.067-12.734,17.067-24.224V24.6c0-14.507-11.093-25.6-25.6-25.6H33.133
				c-14.507,0-25.6,11.093-25.6,25.6v17.067c0,11.491,6.963,20.833,17.067,24.224v436.576c0,5.12,3.413,8.533,8.533,8.533h59.733
				h119.467h59.733h204.8c5.12,0,8.533-3.413,8.533-8.533V186.733c9.387,0,17.067-7.68,17.067-17.067V152.6
				C502.467,143.213,494.787,135.533,485.4,135.533z M280.6,220.867h17.067v17.067H280.6V220.867z M280.6,289.133h17.067V306.2
				H280.6V289.133z M280.6,357.4h17.067v17.067H280.6V357.4z M24.6,24.6c0-5.12,3.413-8.533,8.533-8.533h238.933
				c5.12,0,8.533,3.413,8.533,8.533v17.067c0,5.12-3.413,8.533-8.533,8.533H33.133c-5.12,0-8.533-3.413-8.533-8.533V24.6z
				 M41.667,67.267h221.867v76.8V178.2v34.133v34.133V280.6v34.133v34.133V383v110.933h-42.667v-93.867
				c0-5.12-3.413-8.533-8.533-8.533H92.867c-5.12,0-8.533,3.413-8.533,8.533v93.867H41.667V67.267z M101.4,408.6h42.667v34.133
				h-8.533c-5.12,0-8.533,3.413-8.533,8.533c0,5.12,3.413,8.533,8.533,8.533h8.533v34.133H101.4V408.6z M161.133,493.933V459.8
				h8.533c5.12,0,8.533-3.413,8.533-8.533c0-5.12-3.413-8.533-8.533-8.533h-8.533V408.6H203.8v85.333H161.133z M468.333,493.933
				H280.6v-102.4h25.6c5.12,0,8.533-3.413,8.533-8.533v-34.133c0-5.12-3.413-8.533-8.533-8.533h-25.6v-17.067h25.6
				c5.12,0,8.533-3.413,8.533-8.533V280.6c0-5.12-3.413-8.533-8.533-8.533h-25.6V255h25.6c5.12,0,8.533-3.413,8.533-8.533v-34.133
				c0-5.12-3.413-8.533-8.533-8.533h-25.6v-17.067h187.733V493.933z M485.4,169.667h-8.533H280.6V152.6h204.8V169.667z"/>
			<path d="M67.267,144.067H101.4c5.12,0,8.533-3.413,8.533-8.533V101.4c0-5.12-3.413-8.533-8.533-8.533H67.267
				c-5.12,0-8.533,3.413-8.533,8.533v34.133C58.733,140.653,62.147,144.067,67.267,144.067z M75.8,109.933h17.067V127H75.8V109.933z
				"/>
			<path d="M135.533,144.067h34.133c5.12,0,8.533-3.413,8.533-8.533V101.4c0-5.12-3.413-8.533-8.533-8.533h-34.133
				c-5.12,0-8.533,3.413-8.533,8.533v34.133C127,140.653,130.413,144.067,135.533,144.067z M144.067,109.933h17.067V127h-17.067
				V109.933z"/>
			<path d="M203.8,144.067h34.133c5.12,0,8.533-3.413,8.533-8.533V101.4c0-5.12-3.413-8.533-8.533-8.533H203.8
				c-5.12,0-8.533,3.413-8.533,8.533v34.133C195.267,140.653,198.68,144.067,203.8,144.067z M212.333,109.933H229.4V127h-17.067
				V109.933z"/>
			<path d="M67.267,212.333H101.4c5.12,0,8.533-3.413,8.533-8.533v-34.133c0-5.12-3.413-8.533-8.533-8.533H67.267
				c-5.12,0-8.533,3.413-8.533,8.533V203.8C58.733,208.92,62.147,212.333,67.267,212.333z M75.8,178.2h17.067v17.067H75.8V178.2z"/>
			<path d="M135.533,212.333h34.133c5.12,0,8.533-3.413,8.533-8.533v-34.133c0-5.12-3.413-8.533-8.533-8.533h-34.133
				c-5.12,0-8.533,3.413-8.533,8.533V203.8C127,208.92,130.413,212.333,135.533,212.333z M144.067,178.2h17.067v17.067h-17.067
				V178.2z"/>
			<path d="M203.8,212.333h34.133c5.12,0,8.533-3.413,8.533-8.533v-34.133c0-5.12-3.413-8.533-8.533-8.533H203.8
				c-5.12,0-8.533,3.413-8.533,8.533V203.8C195.267,208.92,198.68,212.333,203.8,212.333z M212.333,178.2H229.4v17.067h-17.067
				V178.2z"/>
			<path d="M67.267,280.6H101.4c5.12,0,8.533-3.413,8.533-8.533v-34.133c0-5.12-3.413-8.533-8.533-8.533H67.267
				c-5.12,0-8.533,3.413-8.533,8.533v34.133C58.733,277.187,62.147,280.6,67.267,280.6z M75.8,246.467h17.067v17.067H75.8V246.467z"
				/>
			<path d="M135.533,280.6h34.133c5.12,0,8.533-3.413,8.533-8.533v-34.133c0-5.12-3.413-8.533-8.533-8.533h-34.133
				c-5.12,0-8.533,3.413-8.533,8.533v34.133C127,277.187,130.413,280.6,135.533,280.6z M144.067,246.467h17.067v17.067h-17.067
				V246.467z"/>
			<path d="M203.8,280.6h34.133c5.12,0,8.533-3.413,8.533-8.533v-34.133c0-5.12-3.413-8.533-8.533-8.533H203.8
				c-5.12,0-8.533,3.413-8.533,8.533v34.133C195.267,277.187,198.68,280.6,203.8,280.6z M212.333,246.467H229.4v17.067h-17.067
				V246.467z"/>
			<path d="M101.4,348.867c5.12,0,8.533-3.413,8.533-8.533V306.2c0-5.12-3.413-8.533-8.533-8.533H67.267
				c-5.12,0-8.533,3.413-8.533,8.533v34.133c0,5.12,3.413,8.533,8.533,8.533H101.4z M75.8,314.733h17.067V331.8H75.8V314.733z"/>
			<path d="M135.533,348.867h34.133c5.12,0,8.533-3.413,8.533-8.533V306.2c0-5.12-3.413-8.533-8.533-8.533h-34.133
				c-5.12,0-8.533,3.413-8.533,8.533v34.133C127,345.453,130.413,348.867,135.533,348.867z M144.067,314.733h17.067V331.8h-17.067
				V314.733z"/>
			<path d="M203.8,348.867h34.133c5.12,0,8.533-3.413,8.533-8.533V306.2c0-5.12-3.413-8.533-8.533-8.533H203.8
				c-5.12,0-8.533,3.413-8.533,8.533v34.133C195.267,345.453,198.68,348.867,203.8,348.867z M212.333,314.733H229.4V331.8h-17.067
				V314.733z"/>
			<path d="M408.6,255h34.133c5.12,0,8.533-3.413,8.533-8.533v-34.133c0-5.12-3.413-8.533-8.533-8.533H408.6
				c-5.12,0-8.533,3.413-8.533,8.533v34.133C400.067,251.587,403.48,255,408.6,255z M417.133,220.867H434.2v17.067h-17.067V220.867z
				"/>
			<path d="M408.6,323.267h34.133c5.12,0,8.533-3.413,8.533-8.533V280.6c0-5.12-3.413-8.533-8.533-8.533H408.6
				c-5.12,0-8.533,3.413-8.533,8.533v34.133C400.067,319.853,403.48,323.267,408.6,323.267z M417.133,289.133H434.2V306.2h-17.067
				V289.133z"/>
			<path d="M408.6,391.533h34.133c5.12,0,8.533-3.413,8.533-8.533v-34.133c0-5.12-3.413-8.533-8.533-8.533H408.6
				c-5.12,0-8.533,3.413-8.533,8.533V383C400.067,388.12,403.48,391.533,408.6,391.533z M417.133,357.4H434.2v17.067h-17.067V357.4z
				"/>
			<path d="M340.333,255h34.133c5.12,0,8.533-3.413,8.533-8.533v-34.133c0-5.12-3.413-8.533-8.533-8.533h-34.133
				c-5.12,0-8.533,3.413-8.533,8.533v34.133C331.8,251.587,335.213,255,340.333,255z M348.867,220.867h17.067v17.067h-17.067
				V220.867z"/>
			<path d="M340.333,323.267h34.133c5.12,0,8.533-3.413,8.533-8.533V280.6c0-5.12-3.413-8.533-8.533-8.533h-34.133
				c-5.12,0-8.533,3.413-8.533,8.533v34.133C331.8,319.853,335.213,323.267,340.333,323.267z M348.867,289.133h17.067V306.2h-17.067
				V289.133z"/>
			<path d="M340.333,391.533h34.133c5.12,0,8.533-3.413,8.533-8.533v-34.133c0-5.12-3.413-8.533-8.533-8.533h-34.133
				c-5.12,0-8.533,3.413-8.533,8.533V383C331.8,388.12,335.213,391.533,340.333,391.533z M348.867,357.4h17.067v17.067h-17.067
				V357.4z"/>
		</g>
	</g>
</g>
<g>
</g>
<g>
</g>
<g>
</g>
<g>
</g>
<g>
</g>
<g>
</g>
<g>
</g>
<g>
</g>
<g>
</g>
<g>
</g>
<g>
</g>
<g>
</g>
<g>
</g>
<g>
</g>
<g>
</g>
</svg>
