<?xml version="1.0" encoding="iso-8859-1"?>
<!-- Generator: Adobe Illustrator 19.0.0, SVG Export Plug-In . SVG Version: 6.00 Build 0)  -->
<svg version="1.1" id="Capa_1" xmlns="http://www.w3.org/2000/svg" xmlns:xlink="http://www.w3.org/1999/xlink" x="0px" y="0px"
	 viewBox="0 0 512 512" style="enable-background:new 0 0 512 512;" xml:space="preserve">
<g>
	<g>
		<path d="M198.741,173.263c-0.022,0-0.047,0-0.07,0c-6.345,0.038-10.121,5.13-10.106,10.031s3.821,9.971,10.167,9.971
			c0.039,0,0.079,0,0.118,0c6.345-0.076,10.091-5.19,10.048-10.091C208.854,178.291,205.046,173.263,198.741,173.263z"/>
	</g>
</g>
<g>
	<g>
		<path d="M161.903,187.598c-1.753-5.237-7.415-8.062-12.656-6.311c-32.681,10.934-61.23,32.824-80.392,61.639
			c-3.058,4.599-1.809,10.806,2.79,13.864c1.702,1.132,3.626,1.674,5.528,1.674c3.235,0,6.41-1.567,8.336-4.464
			c16.71-25.129,41.6-44.216,70.083-53.746C160.83,198.502,163.655,192.835,161.903,187.598z"/>
	</g>
</g>
<g>
	<g>
		<path d="M306.1,91.907c-7.059-10.541-18.845-16.833-31.53-16.833H122.892c-12.686,0-24.474,6.293-31.531,16.834
			c-7.057,10.541-8.386,23.837-3.554,35.566l11.246,27.294c2.123,5.156,6.143,9.138,11.318,11.212
			c5.177,2.075,10.833,1.97,15.928-0.292c22.853-10.144,47.223-15.287,72.433-15.287c25.211,0,49.581,5.143,72.432,15.287h0.001
			c2.664,1.183,5.481,1.775,8.303,1.775c2.575,0.001,5.155-0.493,7.625-1.483c5.175-2.074,9.195-6.057,11.318-11.212l11.244-27.296
			C314.487,115.743,313.158,102.448,306.1,91.907z M291.163,119.854l-11.244,27.297c-0.023,0.057-0.078,0.189-0.267,0.265
			c-0.189,0.076-0.318,0.017-0.374-0.008c-25.423-11.285-52.522-17.007-80.547-17.007c-28.023,0-55.123,5.722-80.546,17.006
			c-0.058,0.025-0.188,0.083-0.374,0.007c-0.188-0.075-0.243-0.208-0.267-0.265l-11.246-27.294
			c-2.319-5.63-1.707-11.761,1.681-16.821s8.823-7.961,14.912-7.961H274.57c6.089,0,11.523,2.902,14.911,7.961
			C292.869,108.094,293.482,114.224,291.163,119.854z"/>
	</g>
</g>
<g>
	<g>
		<path d="M479.963,308.004c-0.521-0.563-0.67-1.425-0.378-2.199l13.893-36.807c5.14-13.621,3.266-28.901-5.015-40.876
			C480.184,216.148,466.549,209,451.991,209h-15.658c-5.522,0-10,4.477-10,10s4.478,10,10,10h15.658
			c8.111,0,15.408,3.826,20.021,10.498c4.613,6.672,5.616,14.851,2.753,22.439l-13.892,36.806c-2.992,7.926-1.3,16.684,4.417,22.854
			c17.225,18.591,26.71,42.792,26.71,68.147c0,27.472-10.892,53.11-30.667,72.191c-2.049,1.977-4.739,3.065-7.577,3.065H329.627
			c-2.838,0-5.528-1.088-7.577-3.065c-19.775-19.081-30.667-44.719-30.667-72.191c0-25.357,9.486-49.561,26.711-68.151
			c5.718-6.171,7.411-14.929,4.419-22.856l-13.891-36.799c-2.864-7.589-1.862-15.768,2.751-22.439
			c4.612-6.672,11.91-10.499,20.021-10.499h32.257c5.522,0,10-4.477,10-10s-4.478-10-10-10h-6.628
			c-3.916-5.15-8.092-10.15-12.479-14.887c-2.708-2.923-3.525-7.282-2.083-11.105l23.767-62.973
			c7.972-21.12,5.065-44.813-7.772-63.381C345.617,38.085,324.476,27,301.901,27H95.567c-22.574,0-43.716,11.085-56.555,29.654
			c-12.838,18.568-15.743,42.263-7.771,63.384l23.768,62.961c1.443,3.823,0.625,8.183-2.083,11.106
			C18.796,230.941,0,278.895,0,329.133c0,54.426,21.577,105.219,60.755,143.021C69.339,480.438,80.628,485,92.543,485H304.92
			c4.628,0,9.179-0.704,13.573-2.073c3.511,1.356,7.272,2.073,11.134,2.073h124.129c8.046,0,15.668-3.08,21.464-8.672
			c23.718-22.885,36.78-53.634,36.78-86.583C512,359.333,500.622,330.304,479.963,308.004z M92.543,465
			c-6.706,0-13.064-2.57-17.9-7.238C39.406,423.763,20,378.082,20,329.133c0-45.182,16.903-88.308,47.598-121.435
			c7.938-8.568,10.284-20.738,6.123-31.762l-23.768-62.961c-5.737-15.2-3.729-31.583,5.511-44.946C64.703,54.665,79.32,47,95.567,47
			h206.334c16.246,0,30.863,7.664,40.104,21.027c9.239,13.363,11.248,29.745,5.512,44.945l-23.767,62.973
			c-4.161,11.023-1.815,23.192,6.122,31.76c0.397,0.429,0.781,0.873,1.175,1.306c-14.427,0.113-27.912,7.235-36.125,19.114
			c-8.279,11.975-10.152,27.256-5.011,40.877l13.891,36.798c0.292,0.773,0.144,1.637-0.378,2.2
			c-20.662,22.3-32.041,51.331-32.041,81.744c0,27.781,9.287,53.998,26.416,75.256H92.543z"/>
	</g>
</g>
<g>
	<g>
		<path d="M457.898,248.78c-4.898-7.315-13.078-11.682-21.881-11.682h-88.652c-8.805,0-16.984,4.368-21.883,11.684
			c-4.897,7.315-5.819,16.542-2.466,24.682l6.573,15.953c1.672,4.059,4.837,7.194,8.911,8.827c4.074,1.632,8.526,1.551,12.542-0.229
			c12.821-5.692,26.498-8.578,40.648-8.578s27.827,2.886,40.648,8.578c2.098,0.932,4.316,1.398,6.538,1.398
			c2.028,0,4.059-0.389,6.004-1.168c4.077-1.635,7.242-4.771,8.914-8.83l6.571-15.953
			C463.719,265.322,462.796,256.095,457.898,248.78z M441.873,265.844l-5.081,12.335c-14.322-5.804-29.476-8.743-45.101-8.743
			s-30.778,2.94-45.101,8.743l-5.082-12.334c-1.163-2.822,0.027-5.091,0.593-5.936c0.566-0.845,2.211-2.81,5.264-2.81h88.652
			c3.052,0,4.696,1.965,5.262,2.81C441.846,260.752,443.035,263.021,441.873,265.844z"/>
	</g>
</g>
<g>
	<g>
		<path d="M185.764,298.014v-25.986c0-5.523-4.478-10-10-10c-5.522,0-10,4.477-10,10v25.96h-18.555v-25.96c0-5.523-4.478-10-10-10
			c-5.522,0-10,4.477-10,10v35.96c0,5.523,4.478,10,10,10h28.555v26.04c0,5.523,4.478,10,10,10c5.522,0,10-4.477,10-10v-26.066
			c5.282-0.269,9.486-4.625,9.486-9.974S191.046,298.283,185.764,298.014z"/>
	</g>
</g>
<g>
	<g>
		<path d="M245.083,262.028h-8.213c-13.879,0-25.171,11.292-25.171,25.171v41.658c0,13.879,11.292,25.171,25.171,25.171h8.213
			c13.88,0,25.172-11.292,25.172-25.171v-41.658C270.255,273.32,258.963,262.028,245.083,262.028z M250.255,328.857
			c0,2.852-2.32,5.171-5.172,5.171h-8.213c-2.852,0-5.171-2.32-5.171-5.171v-41.658c0-2.851,2.319-5.171,5.171-5.171h8.213
			c2.852,0,5.172,2.32,5.172,5.171V328.857z"/>
	</g>
</g>
<g>
	<g>
		<path d="M373.898,347.761c-3.737-1.549-8.039-0.692-10.898,2.167l-21.81,21.81c-3.905,3.905-3.905,10.237,0,14.143
			c3.906,3.904,10.236,3.904,14.143,0l4.738-4.739V421c0,5.523,4.478,10,10,10c5.522,0,10-4.477,10-10v-64
			C380.071,352.956,377.634,349.309,373.898,347.761z"/>
	</g>
</g>
<g>
	<g>
		<path d="M419.95,347h-3.93c-13.879,0-25.171,11.292-25.171,25.171v33.657c0,13.879,11.292,25.171,25.171,25.171h3.93
			c13.879,0,25.171-11.292,25.171-25.171v-33.657C445.121,358.292,433.829,347,419.95,347z M425.121,405.829
			c0,2.852-2.319,5.171-5.171,5.171h-3.93c-2.852,0-5.171-2.32-5.171-5.171v-33.657c0-2.852,2.319-5.171,5.171-5.171h3.93
			c2.852,0,5.171,2.32,5.171,5.171V405.829z"/>
	</g>
</g>
<g>
	<g>
		<path d="M412.909,216.323c-1.478-5.321-6.987-8.435-12.312-6.959l-0.149,0.042c-5.321,1.478-8.437,6.99-6.958,12.312
			c1.23,4.426,5.249,7.326,9.629,7.326c0.886,0,1.787-0.119,2.683-0.367l0.149-0.042
			C411.272,227.157,414.388,221.645,412.909,216.323z"/>
	</g>
</g>
<g>
</g>
<g>
</g>
<g>
</g>
<g>
</g>
<g>
</g>
<g>
</g>
<g>
</g>
<g>
</g>
<g>
</g>
<g>
</g>
<g>
</g>
<g>
</g>
<g>
</g>
<g>
</g>
<g>
</g>
</svg>
