<?xml version="1.0" encoding="iso-8859-1"?>
<!-- Generator: Adobe Illustrator 19.0.0, SVG Export Plug-In . SVG Version: 6.00 Build 0)  -->
<svg version="1.1" id="Capa_1" xmlns="http://www.w3.org/2000/svg" xmlns:xlink="http://www.w3.org/1999/xlink" x="0px" y="0px"
	 viewBox="0 0 512 512" style="enable-background:new 0 0 512 512;" xml:space="preserve">
<g>
	<g>
		<path d="M220.396,344.613c-21.291,0-38.612,17.321-38.612,38.611c0,21.291,17.321,38.612,38.612,38.612
			c21.29,0,38.611-17.321,38.612-38.612C259.008,361.934,241.687,344.613,220.396,344.613z M220.396,401.835
			c-10.263,0-18.612-8.35-18.612-18.612c0-10.262,8.349-18.611,18.612-18.611c10.262,0,18.612,8.349,18.612,18.611
			C239.008,393.485,230.659,401.835,220.396,401.835z"/>
	</g>
</g>
<g>
	<g>
		<path d="M473.34,309.87c-0.13-0.641-0.32-1.27-0.57-1.87c-0.25-0.61-0.56-1.19-0.92-1.73c-0.36-0.55-0.78-1.06-1.24-1.52
			c-1.86-1.861-4.44-2.931-7.07-2.931s-5.21,1.071-7.07,2.931c-0.46,0.46-0.88,0.97-1.25,1.52c-0.36,0.54-0.67,1.12-0.92,1.73
			c-0.25,0.599-0.44,1.229-0.57,1.87c-0.13,0.639-0.19,1.3-0.19,1.949c0,0.65,0.06,1.31,0.19,1.95c0.13,0.641,0.32,1.27,0.57,1.87
			c0.25,0.61,0.56,1.19,0.92,1.73c0.37,0.55,0.79,1.06,1.25,1.52c1.86,1.861,4.43,2.93,7.07,2.93c2.63,0,5.21-1.069,7.07-2.93
			c0.46-0.46,0.88-0.97,1.24-1.52c0.36-0.54,0.67-1.12,0.92-1.73c0.25-0.599,0.44-1.229,0.57-1.87c0.13-0.639,0.2-1.3,0.2-1.95
			C473.54,311.17,473.47,310.51,473.34,309.87z"/>
	</g>
</g>
<g>
	<g>
		<path d="M502,264.449H219.97c-2.485,0-4.882,0.926-6.722,2.597l-72.363,65.702c-2.087,1.896-3.278,4.584-3.278,7.403v33.072H114
			c-51.832,0-94-42.168-94-94v-34.505c0-17.901,5.03-34.648,13.75-48.905c6.37,13.718,15.173,26.352,26.185,37.365
			c24.673,24.673,57.475,38.259,92.377,38.257h0.049c34.916-0.013,67.747-13.621,92.445-38.319
			c9.433-9.433,17.248-20.113,23.352-31.892l185.227-1.638c2.622-0.023,5.129-1.075,6.983-2.929l48.108-48.186
			c5.826-5.829,3.133-11.985,0.895-14.427c-0.094-0.104-0.19-0.204-0.289-0.303l-41.429-41.566
			c-1.908-1.914-4.516-2.989-7.211-2.939c-0.129,0.002-13.102,0.175-31.437,0.929c-2.978,0.12-6.04,0.241-16.956,11.68l-8.632-8.445
			c-1.704-1.667-3.947-2.671-6.325-2.83l-15.715-1.054c-2.822-0.186-5.593,0.825-7.625,2.793l-10.648,10.311
			c-3.109-3.116-6.9-6.929-10.462-10.518c-2.269-2.286-5.497-3.342-8.68-2.83l-13.991,2.241c-1.979,0.317-3.818,1.222-5.277,2.597
			c-3.366,3.172-6.944,6.529-9.864,9.254l-10.762-9.197c-1.592-1.361-3.571-2.188-5.658-2.363l-25.716-2.165
			c-6.572-15.593-15.907-29.493-27.807-41.394c-24.665-24.664-57.458-38.244-92.354-38.244h-0.056
			c-34.912,0.015-67.739,13.622-92.432,38.315c-24.71,24.7-38.33,57.533-38.35,92.448c-0.006,10.946,1.324,21.687,3.914,32.034
			C9.607,192.431,0,217.474,0,244.719v34.505c0,62.859,51.141,114,114,114h23.606v33.072c0,2.819,1.19,5.508,3.278,7.403
			l72.363,65.703c1.84,1.671,4.237,2.597,6.722,2.597H502c5.523,0,10-4.478,10-10v-217.55C512,268.927,507.523,264.449,502,264.449z
			 M449.118,179.623l-172.537,1.525c2.365-7.25,4.09-14.682,5.157-22.211l188.07-0.004L449.118,179.623z M74.187,62.46
			c20.918-20.919,48.726-32.446,78.299-32.459h0.047c29.551,0,57.327,11.501,78.212,32.387
			c11.337,11.337,19.928,24.841,25.534,40.136c1.338,3.652,4.674,6.197,8.55,6.523l28.694,2.416l15.037,12.852
			c1.955,1.671,4.474,2.521,7.046,2.384c3.675-0.202,5.316-1.717,8.914-5.035c1.572-1.451,3.646-3.384,5.71-5.316
			c2.194-2.052,4.379-4.104,5.938-5.571l5.894-0.943c1.492,1.501,3.292,3.311,5.094,5.119c2.187,2.194,4.376,4.388,6.024,6.028
			c0.843,0.84,1.548,1.538,2.045,2.024c2.144,2.102,4.238,3.088,6.123,3.436l-0.002,0.015c3.143,0.535,6.358-0.452,8.651-2.671
			l14.474-14.015l7.597,0.51l13.398,13.109c1.962,1.92,4.632,2.963,7.371,2.845c2.743-0.104,5.324-1.33,7.136-3.392
			c4.543-5.171,9.758-10.551,12.348-12.792c10.747-0.423,19.361-0.638,24.171-0.737l29.524,29.621l-213.275,0.005
			c-5.256,0-9.614,4.068-9.976,9.312c-0.682,9.87-2.691,19.619-5.972,28.986c-0.092,0.211-0.177,0.426-0.255,0.645
			c-5.586,15.686-14.291,29.511-25.874,41.094c-20.923,20.923-48.734,32.451-78.311,32.462h-0.042
			c-29.558,0-57.341-11.506-78.235-32.399c-11.831-11.831-20.649-25.872-26.072-41.194c8.102-7.996,17.645-14.535,28.199-19.188
			c6.984,16.291,23.18,27.732,41.998,27.732c25.182,0,45.669-20.486,45.669-45.668S143.385,95.05,118.203,95.05
			c-24.439,0-44.456,19.297-45.615,43.454c-10.87,4.253-20.934,10.129-29.891,17.328c-0.666-4.948-1.003-9.976-1-15.055
			C41.714,111.2,53.252,83.387,74.187,62.46z M114,130.719c-6.862,0-13.585,0.61-20.116,1.777
			c3.436-10.134,13.039-17.446,24.318-17.446c14.154,0,25.669,11.515,25.669,25.669c0,14.153-11.515,25.668-25.669,25.668
			c-9.885,0-18.483-5.617-22.77-13.826c6.004-1.208,12.213-1.842,18.568-1.842c5.523,0,10-4.478,10-10
			C124,135.197,119.523,130.719,114,130.719z M288.478,286.48c18.53-3.138,54.366-4.919,72.616,12.596
			c14.939,14.338,17.21,39.607,16.618,57.622l-27.351-29.28l1.974-21.348c0.508-5.5-3.538-10.37-9.037-10.879
			c-5.499-0.503-10.37,3.538-10.878,9.037l-0.335,3.624l-10.087-10.798c-3.77-4.036-10.098-4.252-14.134-0.481
			c-4.036,3.77-4.251,10.098-0.481,14.134l20.744,22.207l-6.222-0.636c-5.492-0.558-10.403,3.436-10.966,8.931
			c-0.562,5.494,3.437,10.403,8.931,10.966l29.022,2.969l16.342,17.495c-19.387,1.714-46.266,0.356-61.266-14.041
			C284.238,339.66,286.603,301.658,288.478,286.48z M223.833,481.998l-66.227-60.13v-28.645h25.491
			c4.417,16.459,19.465,28.612,37.298,28.612c21.291,0,38.612-17.321,38.612-38.612c0-21.29-17.321-38.611-38.612-38.611
			c-17.833,0-32.881,12.153-37.298,28.611h-25.491v-28.645l66.226-60.13h44.723c-2.273,18.591-4.548,63.514,21.563,88.576
			c4.33,4.156,9.174,7.51,14.326,10.199c-5.152,2.689-9.995,6.042-14.325,10.198c-26.112,25.062-23.836,69.987-21.563,88.577
			H223.833z M219.396,373.224h-14.691c3.309-5.174,9.106-8.611,15.691-8.611c10.263,0,18.612,8.349,18.612,18.611
			c0,10.262-8.349,18.612-18.612,18.612c-6.585,0-12.382-3.438-15.691-8.612h14.692c5.523,0,10-4.478,10-10
			C229.397,377.702,224.919,373.224,219.396,373.224z M315.961,482h-4.763c-9.206-0.163-17.381-1.218-22.728-2.1
			c-1.875-15.229-4.202-53.143,15.497-72.049c11.772-11.299,30.003-14.459,45.999-14.641c0.663,0.009,1.321,0.013,1.975,0.013
			c0.496,0,0.989-0.002,1.479-0.007c4.184,0.06,8.163,0.307,11.769,0.642l-16.297,17.447l-29.023,2.969
			c-5.494,0.563-9.493,5.472-8.931,10.966c0.527,5.148,4.871,8.983,9.936,8.983c0.34,0,0.684-0.018,1.03-0.053l6.223-0.636
			l-20.745,22.208c-3.77,4.036-3.555,10.364,0.481,14.134c1.928,1.801,4.378,2.692,6.824,2.692c2.673,0,5.341-1.065,7.31-3.174
			l55.75-59.681c0.528,19.12-2.406,43.985-16.653,57.659C349.534,478.467,331.745,481.714,315.961,482z M415.078,481.999h-0.001
			h-40.343c0.07-0.066,0.139-0.132,0.208-0.198c32.784-31.466,20.819-94.242,20.294-96.898c-0.115-0.579-0.279-1.14-0.488-1.679
			c0.209-0.538,0.373-1.099,0.488-1.679c0.525-2.656,12.49-65.432-20.293-96.898c-0.069-0.066-0.138-0.132-0.207-0.197h40.342
			V481.999z M492,481.999h-18.461V351.82c0-5.522-4.477-10-10-10s-10,4.478-10,10v130.179h-18.461v-197.55H492V481.999z"/>
	</g>
</g>
<g>
</g>
<g>
</g>
<g>
</g>
<g>
</g>
<g>
</g>
<g>
</g>
<g>
</g>
<g>
</g>
<g>
</g>
<g>
</g>
<g>
</g>
<g>
</g>
<g>
</g>
<g>
</g>
<g>
</g>
</svg>
