<?xml version="1.0" encoding="iso-8859-1"?>
<!-- Generator: Adobe Illustrator 19.0.0, SVG Export Plug-In . SVG Version: 6.00 Build 0)  -->
<svg version="1.1" id="Capa_1" xmlns="http://www.w3.org/2000/svg" xmlns:xlink="http://www.w3.org/1999/xlink" x="0px" y="0px"
	 viewBox="0 0 512 512" style="enable-background:new 0 0 512 512;" xml:space="preserve">
<g>
	<g>
		<g>
			<path d="M256,34.133c-75.281,0-136.533,61.252-136.533,136.533c0,41.748,18.844,79.174,48.465,104.24
				c0.189,0.19,0.385,0.375,0.594,0.549c6.126,5.119,12.662,9.662,19.52,13.599c16.725,9.638,35.675,15.824,55.87,17.604
				c0.103,0.009,0.207,0.019,0.31,0.028c0.807,0.069,1.617,0.132,2.428,0.187c0.343,0.024,0.686,0.044,1.03,0.065
				c0.651,0.039,1.302,0.078,1.955,0.108c0.565,0.027,1.131,0.045,1.697,0.065c0.477,0.016,0.953,0.036,1.431,0.047
				c1.075,0.026,2.151,0.041,3.228,0.041c0.002,0,0.004,0,0.006,0c0,0,0,0,0,0c0,0,0,0,0,0c1.08,0,2.158-0.015,3.235-0.041
				c0.474-0.011,0.945-0.031,1.417-0.047c0.571-0.02,1.143-0.039,1.713-0.065c0.648-0.03,1.293-0.068,1.938-0.107
				c0.35-0.021,0.701-0.043,1.051-0.067c0.805-0.055,1.607-0.117,2.407-0.186c0.113-0.01,0.225-0.02,0.338-0.03
				c20.177-1.781,39.11-7.96,55.823-17.585c6.869-3.94,13.416-8.49,19.551-13.616c0.211-0.177,0.41-0.363,0.6-0.556
				c29.617-25.065,48.457-62.489,48.457-104.233C392.533,95.386,331.281,34.133,256,34.133z M236.383,200.465
				c-0.111-0.111-11.307-11.452-14.729-26.368c-0.503-2.167-1.818-4.053-3.686-5.257c-3.123-2.022-4.258-3.277-4.634-3.789v-13.901
				c0.751-0.657,1.903-1.502,2.611-2.022c1.203-0.887,2.304-1.715,3.115-2.449c1.783-1.621,2.807-3.917,2.807-6.332l-0.008-23.885
				c0-0.128-0.179-13.261,8.482-22.212c5.726-5.914,14.362-8.917,25.66-8.917c12.015,0,20.983,3.081,26.675,9.156
				c8.218,8.764,7.484,21.513,7.458,22.255v23.603c0,2.415,1.024,4.71,2.807,6.332c0.811,0.734,1.911,1.562,3.115,2.449
				c0.708,0.521,1.86,1.365,2.611,2.022v13.901c-0.375,0.512-1.51,1.766-4.634,3.789c-1.869,1.203-3.191,3.089-3.686,5.257
				c-3.439,14.993-14.635,26.274-14.729,26.368c-1.638,1.604-2.552,3.797-2.552,6.084v14.925c0,12.16,5.82,17.886,10.692,20.548
				l36.42,19.866c2.425,1.319,4.587,3.046,6.402,5.104c-0.331,0.243-0.662,0.486-0.995,0.726c-0.613,0.44-1.229,0.873-1.85,1.3
				c-0.59,0.408-1.183,0.811-1.781,1.208c-0.888,0.588-1.781,1.167-2.682,1.731c-0.279,0.175-0.557,0.351-0.838,0.523
				c-1.228,0.753-2.466,1.489-3.719,2.196c-0.028,0.016-0.057,0.031-0.085,0.047c-16.323,9.198-34.685,14.482-53.527,15.293
				c-0.258,0.011-0.516,0.02-0.774,0.03c-1.441,0.053-2.883,0.087-4.329,0.087c-0.001,0-0.001,0-0.002,0
				c-1.447,0-2.891-0.034-4.333-0.087c-0.256-0.009-0.512-0.018-0.768-0.029c-18.861-0.812-37.24-6.103-53.575-15.318
				c-0.003-0.002-0.006-0.003-0.009-0.005c-1.274-0.719-2.533-1.466-3.781-2.233c-0.253-0.155-0.503-0.314-0.754-0.471
				c-0.948-0.591-1.886-1.199-2.818-1.818c-0.526-0.35-1.049-0.705-1.569-1.064c-0.68-0.467-1.354-0.942-2.025-1.424
				c-0.318-0.229-0.634-0.461-0.949-0.693c1.815-2.058,3.977-3.785,6.402-5.105l36.42-19.866
				c4.872-2.662,10.692-8.388,10.692-20.548v-14.925C238.934,204.262,238.021,202.069,236.383,200.465z M339.568,255.953
				c-3.168-3.64-6.931-6.712-11.213-9.049l-36.42-19.866c-0.444-0.239-1.801-0.981-1.801-5.564v-11.605
				c4.105-4.727,12.075-15.155,15.983-28.621c3.959-2.927,9.617-8.209,9.617-15.522v-16.324c0-6.383-4.804-10.47-8.542-13.261
				l-0.017-18.739c0.06-0.811,1.399-20.053-11.87-34.389c-9.045-9.788-22.272-14.746-39.305-14.746
				c-16.094,0-28.851,4.753-37.922,14.123c-13.773,14.234-13.295,33.809-13.278,34.355v19.396
				c-3.738,2.799-8.533,6.878-8.533,13.261v16.324c0,7.313,5.658,12.595,9.617,15.522c3.908,13.466,11.878,23.893,15.983,28.621
				v11.605c0,4.582-1.357,5.325-1.801,5.564l-36.42,19.866c-4.282,2.338-8.046,5.41-11.214,9.05
				c-22.139-21.697-35.899-51.912-35.899-85.287C136.533,104.789,190.123,51.2,256,51.2s119.467,53.589,119.467,119.467
				C375.467,204.041,361.707,234.256,339.568,255.953z"/>
			<path d="M401.067,0H110.933c-14.114,0-25.6,11.486-25.6,25.6v460.8c0,14.114,11.486,25.6,25.6,25.6H153.6h204.8h42.667
				c14.114,0,25.6-11.486,25.6-25.6V25.6C426.667,11.486,415.181,0,401.067,0z M162.133,494.933v-17.067h187.733v17.067H162.133z
				 M409.6,486.4c0,4.702-3.831,8.533-8.533,8.533h-34.133v-25.6c0-4.71-3.823-8.533-8.533-8.533H153.6
				c-4.71,0-8.533,3.823-8.533,8.533v25.6h-34.133c-4.702,0-8.533-3.831-8.533-8.533V25.6c0-4.702,3.831-8.533,8.533-8.533h290.133
				c4.702,0,8.533,3.831,8.533,8.533V486.4z"/>
			<path d="M324.267,341.333c4.71,0,8.533-3.823,8.533-8.533c0-4.71-3.823-8.533-8.533-8.533H187.733
				c-4.71,0-8.533,3.823-8.533,8.533c0,4.71,3.823,8.533,8.533,8.533H324.267z"/>
			<path d="M136.533,384c0,4.71,3.823,8.533,8.533,8.533h51.2c4.71,0,8.533-3.823,8.533-8.533s-3.823-8.533-8.533-8.533h-51.2
				C140.356,375.467,136.533,379.29,136.533,384z"/>
			<path d="M213.333,409.6h-68.267c-4.71,0-8.533,3.823-8.533,8.533s3.823,8.533,8.533,8.533h68.267c4.71,0,8.533-3.823,8.533-8.533
				S218.044,409.6,213.333,409.6z"/>
			<path d="M349.867,409.6h-51.2c-4.71,0-8.533,3.823-8.533,8.533s3.823,8.533,8.533,8.533h51.2c4.71,0,8.533-3.823,8.533-8.533
				S354.577,409.6,349.867,409.6z"/>
			<path d="M366.933,375.467h-68.267c-4.71,0-8.533,3.823-8.533,8.533s3.823,8.533,8.533,8.533h68.267
				c4.71,0,8.533-3.823,8.533-8.533S371.644,375.467,366.933,375.467z"/>
		</g>
	</g>
</g>
<g>
</g>
<g>
</g>
<g>
</g>
<g>
</g>
<g>
</g>
<g>
</g>
<g>
</g>
<g>
</g>
<g>
</g>
<g>
</g>
<g>
</g>
<g>
</g>
<g>
</g>
<g>
</g>
<g>
</g>
</svg>
